<mxfile host="app.diagrams.net" modified="2022-09-04T12:45:01.557Z" agent="5.0 (Windows NT 10.0; Win64; x64) AppleWebKit/537.36 (KHTML, like Gecko) Chrome/105.0.0.0 Safari/537.36" etag="y4HVdfp7FLqF5a5JjAm4" version="20.2.8" type="github">
  <diagram id="JBjNbHF8LpcnhO2aCSqn" name="Page-1">
    <mxGraphModel dx="966" dy="511" grid="1" gridSize="10" guides="1" tooltips="1" connect="1" arrows="1" fold="1" page="1" pageScale="1" pageWidth="850" pageHeight="1100" background="none" math="0" shadow="0">
      <root>
        <mxCell id="0" />
        <mxCell id="1" parent="0" />
        <mxCell id="-hZ5Jg1KpbOyY5ReRilO-6" style="orthogonalLoop=1;jettySize=auto;html=1;fillColor=#60a917;strokeColor=#2D7600;strokeWidth=1;endArrow=oval;endFill=1;curved=1;" parent="1" source="-hZ5Jg1KpbOyY5ReRilO-1" target="-hZ5Jg1KpbOyY5ReRilO-5" edge="1">
          <mxGeometry relative="1" as="geometry">
            <Array as="points">
              <mxPoint x="360" y="100" />
              <mxPoint x="490" y="160" />
            </Array>
          </mxGeometry>
        </mxCell>
        <mxCell id="-hZ5Jg1KpbOyY5ReRilO-15" style="edgeStyle=none;curved=1;orthogonalLoop=1;jettySize=auto;html=1;entryX=0.5;entryY=0;entryDx=0;entryDy=0;strokeWidth=1;fontFamily=Tahoma;endArrow=oval;endFill=1;shape=link;sketch=0;rounded=0;shadow=0;targetPerimeterSpacing=0;" parent="1" source="-hZ5Jg1KpbOyY5ReRilO-1" target="-hZ5Jg1KpbOyY5ReRilO-13" edge="1">
          <mxGeometry relative="1" as="geometry" />
        </mxCell>
        <mxCell id="-hZ5Jg1KpbOyY5ReRilO-1" value="" style="rounded=1;whiteSpace=wrap;html=1;fillColor=#dae8fc;strokeColor=#6c8ebf;" parent="1" vertex="1">
          <mxGeometry x="207.5" y="80" width="120" height="60" as="geometry" />
        </mxCell>
        <mxCell id="-hZ5Jg1KpbOyY5ReRilO-2" value="Basic Requirement of PWA" style="text;html=1;strokeColor=none;fillColor=none;align=left;verticalAlign=middle;whiteSpace=wrap;rounded=0;fontStyle=1;horizontal=1;" parent="1" vertex="1">
          <mxGeometry x="230" y="95" width="60" height="30" as="geometry" />
        </mxCell>
        <mxCell id="-hZ5Jg1KpbOyY5ReRilO-5" value="&lt;div style=&quot;&quot;&gt;&lt;b style=&quot;background-color: initial;&quot;&gt;Optional&lt;/b&gt;&lt;/div&gt;&lt;b&gt;&lt;div style=&quot;&quot;&gt;&lt;b style=&quot;background-color: initial;&quot;&gt;Favicon.ico&lt;/b&gt;&lt;/div&gt;&lt;/b&gt;" style="ellipse;whiteSpace=wrap;html=1;rounded=0;fillColor=#d5e8d4;strokeColor=#82b366;align=center;" parent="1" vertex="1">
          <mxGeometry x="590" y="140" width="120" height="80" as="geometry" />
        </mxCell>
        <mxCell id="-hZ5Jg1KpbOyY5ReRilO-17" style="edgeStyle=none;curved=1;orthogonalLoop=1;jettySize=auto;html=1;exitX=0.5;exitY=1;exitDx=0;exitDy=0;entryX=0.5;entryY=0;entryDx=0;entryDy=0;strokeWidth=1;fontFamily=Tahoma;endArrow=oval;endFill=1;shape=link;" parent="1" source="-hZ5Jg1KpbOyY5ReRilO-9" target="-hZ5Jg1KpbOyY5ReRilO-12" edge="1">
          <mxGeometry relative="1" as="geometry" />
        </mxCell>
        <mxCell id="-hZ5Jg1KpbOyY5ReRilO-18" style="edgeStyle=none;curved=1;orthogonalLoop=1;jettySize=auto;html=1;entryX=0;entryY=0.5;entryDx=0;entryDy=0;strokeWidth=1;fontFamily=Tahoma;endArrow=oval;endFill=1;shape=link;" parent="1" source="-hZ5Jg1KpbOyY5ReRilO-9" target="-hZ5Jg1KpbOyY5ReRilO-14" edge="1">
          <mxGeometry relative="1" as="geometry" />
        </mxCell>
        <mxCell id="-hZ5Jg1KpbOyY5ReRilO-9" value="&lt;b&gt;&lt;font face=&quot;Tahoma&quot;&gt;2. Manifest.json File&lt;/font&gt;&lt;/b&gt;" style="rounded=1;fillColor=#b0e3e6;strokeColor=#0e8088;labelBackgroundColor=default;labelBorderColor=none;html=1;" parent="1" vertex="1">
          <mxGeometry x="170" y="280" width="200" height="50" as="geometry" />
        </mxCell>
        <mxCell id="-hZ5Jg1KpbOyY5ReRilO-12" value="&lt;b&gt;&lt;font face=&quot;Tahoma&quot;&gt;3. Service Worker&lt;/font&gt;&lt;/b&gt;" style="rounded=1;fillColor=#b0e3e6;strokeColor=#0e8088;labelBackgroundColor=default;labelBorderColor=none;html=1;" parent="1" vertex="1">
          <mxGeometry x="185" y="380" width="170" height="40" as="geometry" />
        </mxCell>
        <mxCell id="-hZ5Jg1KpbOyY5ReRilO-16" style="edgeStyle=none;curved=1;orthogonalLoop=1;jettySize=auto;html=1;entryX=0.5;entryY=0;entryDx=0;entryDy=0;strokeWidth=1;fontFamily=Tahoma;endArrow=oval;endFill=1;shape=link;" parent="1" source="-hZ5Jg1KpbOyY5ReRilO-13" target="-hZ5Jg1KpbOyY5ReRilO-9" edge="1">
          <mxGeometry relative="1" as="geometry" />
        </mxCell>
        <mxCell id="-hZ5Jg1KpbOyY5ReRilO-13" value="&lt;b&gt;1. HTTPS&lt;/b&gt;" style="rounded=1;fillColor=#b0e3e6;strokeColor=#0e8088;labelBackgroundColor=default;labelBorderColor=none;html=1;fontFamily=Tahoma;" parent="1" vertex="1">
          <mxGeometry x="200" y="190" width="135" height="50" as="geometry" />
        </mxCell>
        <mxCell id="-hZ5Jg1KpbOyY5ReRilO-14" value="&lt;b&gt;&lt;font face=&quot;Tahoma&quot;&gt;Icon of various sizes&lt;/font&gt;&lt;/b&gt;" style="rounded=1;fillColor=#b0e3e6;strokeColor=#0e8088;labelBackgroundColor=default;labelBorderColor=none;html=1;" parent="1" vertex="1">
          <mxGeometry x="450" y="285" width="140" height="40" as="geometry" />
        </mxCell>
        <mxCell id="-hZ5Jg1KpbOyY5ReRilO-19" value="&lt;h1&gt;PWA&lt;/h1&gt;&lt;div&gt;&lt;br&gt;&lt;/div&gt;" style="text;html=1;strokeColor=none;fillColor=none;spacing=5;spacingTop=-20;whiteSpace=wrap;overflow=hidden;rounded=0;labelBackgroundColor=default;labelBorderColor=none;fontFamily=Tahoma;" parent="1" vertex="1">
          <mxGeometry x="530" y="360" width="190" height="40" as="geometry" />
        </mxCell>
        <mxCell id="-hZ5Jg1KpbOyY5ReRilO-20" value="&lt;i style=&quot;&quot;&gt;&lt;font face=&quot;Helvetica&quot;&gt;By: Nilesh&lt;/font&gt;&lt;/i&gt;" style="text;html=1;strokeColor=none;fillColor=none;align=center;verticalAlign=middle;whiteSpace=wrap;rounded=0;labelBackgroundColor=default;labelBorderColor=none;fontFamily=Tahoma;" parent="1" vertex="1">
          <mxGeometry x="700" y="450" width="90" height="30" as="geometry" />
        </mxCell>
        <mxCell id="xKJMAJnRJXqwITbdk36u-1" style="edgeStyle=none;shape=link;curved=1;rounded=0;sketch=0;orthogonalLoop=1;jettySize=auto;html=1;exitX=0.5;exitY=1;exitDx=0;exitDy=0;shadow=0;strokeWidth=1;fontFamily=Helvetica;endArrow=oval;endFill=1;targetPerimeterSpacing=0;" edge="1" parent="1" source="-hZ5Jg1KpbOyY5ReRilO-5" target="-hZ5Jg1KpbOyY5ReRilO-5">
          <mxGeometry relative="1" as="geometry" />
        </mxCell>
      </root>
    </mxGraphModel>
  </diagram>
</mxfile>
